:SAMPLES-PER-SECOND 30
:FULLY-SPECIFIED
:DEGREES
550
root  -38.4096 38.908 -31.3189 8.34276 72.1038 12.2682
RightUpLeg  -21.6879 -5.00854 -0.218697
RightLeg  3.19095 -14.2083 4.90057
RightFoot  -3.78358 -0.370796 5.22142
RightToes  0.00048216 0.542163 -0.142577
Spine  14.1286 -1.84773 -0.424228
Spine1  10.8995 -2.80818 1.99257
HEad  -12.105 4.02124 -0.0322364
LeftShoulder1  9.36777 -14.2976 -45.8915
LeftArm  -4.32512 -2.15639 -30.2829
LeftForeArm  38.7947 -35.8633 -5.81085
LeftHand  -0.25398 0.0180481 5.50724
RightShoulder  5.35659 9.56181 35.0361
RightArm  -11.3023 -10.0533 36.886
RightForeArm  74.3949 79.3421 86.086
RightHand  -5.55287 15.0034 -31.2932
LeftUpLeg  17.596 4.61885 -7.42918
LeftLeg  9.50078 17.0248 -2.86442
LeftFoot  -22.2988 0.311107 1.84708
LeftToes  1.06246e-005 4.65856e-005 -8.18502e-006
551
root  -36.8122 38.7065 -31.1059 6.59367 74.3372 10.3878
RightUpLeg  -22.6796 -5.82019 1.55022
RightLeg  6.53563 -10.7953 3.54421
RightFoot  -1.27492 -0.153592 1.80511
RightToes  0.00048216 0.542163 -0.142577
Spine  13.7064 -2.27254 0.58583
Spine1  11.0131 -3.56203 3.15437
HEad  -12.8255 3.67242 -0.932057
LeftShoulder1  9.37168 -14.2738 -45.9748
LeftArm  -4.04302 -0.774719 -30.6917
LeftForeArm  39.7154 -37.2796 -6.12957
LeftHand  -0.25398 0.0180481 5.50724
RightShoulder  5.29804 9.47533 34.8611
RightArm  -11.4801 -11.4954 36.2751
RightForeArm  80.4905 79.4094 91.1761
RightHand  -5.46671 14.7599 -31.187
LeftUpLeg  19.6033 5.67457 -5.75488
LeftLeg  11.1155 13.9618 -2.16593
LeftFoot  -22.2487 0.222441 0.938034
LeftToes  1.06246e-005 4.65856e-005 -8.18502e-006
552
root  -35.0816 38.5869 -30.8757 1.64421 76.2415 5.30717
RightUpLeg  -23.7177 -8.49038 4.80291
RightLeg  11.7845 -6.01191 1.43599
RightFoot  2.66616 0.401746 -3.11905
RightToes  0.00048216 0.542163 -0.142577
Spine  13.3941 -2.80853 2.76529
Spine1  11.0212 -4.1459 3.90427
HEad  -14.0676 3.31337 -1.51961
LeftShoulder1  9.47272 -14.3067 -46.3971
LeftArm  -3.47437 1.70265 -30.5843
LeftForeArm  39.9927 -38.33 -6.39628
LeftHand  -0.25398 0.0180481 5.50724
RightShoulder  5.27231 9.40152 34.8947
RightArm  -11.6185 -13.661 35.4898
RightForeArm  87.419 79.4196 96.5168
RightHand  -5.3241 14.4389 -30.8853
LeftUpLeg  21.6604 8.88014 -2.30766
LeftLeg  13.3202 8.54017 -1.13429
LeftFoot  -21.4264 -0.0160186 -1.63658
LeftToes  1.06246e-005 4.65856e-005 -8.18502e-006
553
root  -33.2296 38.5233 -30.6468 -4.87097 76.8454 -1.30313
RightUpLeg  -24.3729 -10.6324 7.76602
RightLeg  17.2521 -2.30647 -0.483776
RightFoot  4.85897 0.992721 -6.78761
RightToes  0.00048216 0.542163 -0.142577
Spine  13.1227 -3.18374 5.76118
Spine1  10.7636 -4.11799 3.75643
HEad  -15.0733 3.01593 -2.04666
LeftShoulder1  9.57975 -14.2623 -47.0556
LeftArm  -2.70135 5.08983 -30.1377
LeftForeArm  39.3209 -38.3261 -6.43467
LeftHand  -0.25398 0.0180481 5.50724
RightShoulder  5.29889 9.38468 35.1498
RightArm  -11.4902 -16.3016 34.647
RightForeArm  90.9347 79.4465 98.4487
RightHand  -5.16514 14.0894 -30.5253
LeftUpLeg  23.204 13.6108 2.02986
LeftLeg  16.7421 2.25844 -0.188095
LeftFoot  -19.003 -0.277027 -6.05736
LeftToes  1.06246e-005 4.65856e-005 -8.18502e-006
554
root  -31.3817 38.5657 -30.3875 -9.00162 76.5964 -5.88145
RightUpLeg  -24.2249 -9.73583 8.45284
RightLeg  21.6298 -2.7071 -1.47588
RightFoot  3.80214 1.13822 -8.35067
RightToes  0.00048216 0.542163 -0.142577
Spine  12.639 -3.25694 8.17759
Spine1  10.1583 -3.75158 3.53039
HEad  -15.1707 3.2067 -3.1132
LeftShoulder1  9.57148 -14.0585 -47.5699
LeftArm  -1.86235 9.01986 -29.8226
LeftForeArm  37.5311 -36.9491 -6.16763
LeftHand  -0.25398 0.0180481 5.50724
RightShoulder  5.34192 9.43118 35.3317
RightArm  -11.011 -18.9624 34.0631
RightForeArm  88.0231 79.5351 95.0909
RightHand  -5.0862 13.8547 -30.4317
LeftUpLeg  21.8431 16.1087 4.76549
LeftLeg  23.3753 0.1342 0.598351
LeftFoot  -12.2773 -0.00860693 -9.19843
LeftToes  1.06246e-005 4.65856e-005 -8.18502e-006
555
root  -29.6896 38.6661 -30.0838 -11.796 76.9057 -9.60678
RightUpLeg  -23.7536 -9.31509 8.7011
RightLeg  24.6643 -3.62224 -2.04019
RightFoot  0.695545 0.924549 -8.69272
RightToes  0.00048216 0.542163 -0.142577
Spine  11.9537 -3.26328 9.69633
Spine1  9.45139 -3.55342 4.05412
HEad  -14.9189 3.37404 -3.84818
LeftShoulder1  9.45412 -13.806 -47.6729
LeftArm  -0.916708 12.8656 -29.8664
LeftForeArm  35.233 -34.6843 -5.71025
LeftHand  -0.25398 0.0180481 5.50724
RightShoulder  5.33324 9.42976 35.2699
RightArm  -10.4487 -21.4369 33.9227
RightForeArm  81.2442 79.5104 89.767
RightHand  -5.1492 13.8843 -30.74
LeftUpLeg  16.0585 15.1297 5.40837
LeftLeg  34.0417 2.38077 2.12638
LeftFoot  -0.367729 0.761197 -8.26575
LeftToes  1.06246e-005 4.65856e-005 -8.18502e-006
556
root  -28.2038 38.7247 -29.7764 -16.7425 78.1309 -15.4184
RightUpLeg  -23.0234 -10.2736 9.30617
RightLeg  26.8876 -3.96772 -2.42138
RightFoot  -2.70046 0.63428 -8.60583
RightToes  0.00048216 0.542163 -0.142577
Spine  11.4323 -3.40978 11.2499
Spine1  9.12629 -3.49424 4.87315
HEad  -15.1972 2.64705 -3.35116
LeftShoulder1  9.3218 -13.635 -47.4712
LeftArm  0.111013 16.081 -29.9865
LeftForeArm  33.6682 -32.5318 -5.26467
LeftHand  -0.25398 0.0180481 5.50724
RightShoulder  5.24232 9.25016 35.1403
RightArm  -10.0734 -23.5695 34.1022
RightForeArm  75.3738 79.3673 86.6774
RightHand  -5.34947 14.2308 -31.3311
LeftUpLeg  8.06907 12.8927 5.69435
LeftLeg  45.8868 3.6987 4.46306
LeftFoot  11.4151 0.998439 -5.26502
LeftToes  1.06246e-005 4.65856e-005 -8.18502e-006
557
root  -26.7404 38.8665 -29.4841 -21.9951 79.3925 -20.8129
RightUpLeg  -20.9184 -11.9517 9.38547
RightLeg  27.8218 -3.80637 -2.43964
RightFoot  -5.55952 0.371709 -8.06736
RightToes  0.00048216 0.542163 -0.142577
Spine  11.2988 -3.43713 12.7497
Spine1  9.28966 -3.14846 5.04637
HEad  -15.9012 1.16716 -2.34368
LeftShoulder1  9.20733 -13.4965 -47.2664
LeftArm  0.882796 18.7394 -29.7832
LeftForeArm  33.4113 -31.197 -4.96178
LeftHand  -0.25398 0.0180481 5.50724
RightShoulder  5.10962 8.9354 35.1142
RightArm  -9.71446 -25.0445 34.346
RightForeArm  71.0788 79.2264 85.0329
RightHand  -5.62351 14.741 -32.0515
LeftUpLeg  0.67937 10.3839 5.60099
LeftLeg  55.9564 3.44231 5.93445
LeftFoot  16.1664 0.620238 -2.89175
LeftToes  1.06246e-005 4.65856e-005 -8.18502e-006
558
root  -25.1604 39.2043 -29.1708 -21.4423 80.1764 -19.8118
RightUpLeg  -17.0127 -13.689 8.02893
RightLeg  26.8307 -2.99994 -1.78959
RightFoot  -7.84169 0.163065 -7.04507
RightToes  0.00048216 0.542163 -0.142577
Spine  11.2767 -3.01404 13.0526
Spine1  9.52669 -2.41217 4.49239
HEad  -16.4385 -0.301794 -1.61756
LeftShoulder1  9.07207 -13.2828 -47.1622
LeftArm  1.11188 21.439 -29.2118
LeftForeArm  33.6232 -30.5844 -4.80838
LeftHand  -0.25398 0.0180481 5.50724
RightShoulder  5.01368 8.69368 35.1409
RightArm  -8.91538 -25.7692 34.4424
RightForeArm  66.1686 79.0826 81.7154
RightHand  -5.86421 15.1397 -32.7265
LeftUpLeg  -5.36391 8.94551 4.60647
LeftLeg  62.6793 2.68683 6.25238
LeftFoot  14.3495 0.136329 -0.972406
LeftToes  1.06246e-005 4.65856e-005 -8.18502e-006
559
root  -23.5411 39.5513 -28.838 -16.1831 80.5847 -14.2357
RightUpLeg  -12.7161 -14.0522 5.75223
RightLeg  25.0654 -2.81852 -0.700973
RightFoot  -9.81066 0.0143649 -6.06838
RightToes  0.00048216 0.542163 -0.142577
Spine  11.0596 -2.32376 12.6185
Spine1  9.45415 -1.51115 3.74873
HEad  -16.4644 -1.36906 -1.21995
LeftShoulder1  8.9071 -13.0396 -46.9804
LeftArm  1.02603 24.5262 -28.5197
LeftForeArm  33.0835 -30.0735 -4.72006
LeftHand  -0.25398 0.0180481 5.50724
RightShoulder  4.98967 8.63271 35.1494
RightArm  -7.46859 -26.0891 34.2782
RightForeArm  60.8253 78.8881 76.9839
RightHand  -5.99332 15.3251 -33.1186
LeftUpLeg  -10.7619 8.27271 3.24277
LeftLeg  65.6709 2.26236 6.16961
LeftFoot  10.4407 -0.0374911 -0.151055
LeftToes  1.06246e-005 4.65856e-005 -8.18502e-006
